# xmcd
# 
# Track frame offsets:
#     182
#     19535
#     42242
#     60782
#     80762
#     103417
#     114800
#     135472
#     149112
#     163250
#     173442
#     181422
#     192915
#     199557
#     206447
#     218405
#     230172
#     243482
# 
# Disc length: 3450
# 
# Revision: 5
# Processed by: cddbd v1.5.2PL0 Copyright (c) Steve Scherf et al.
# Submitted via: fre:ac v1.0.17
# 
DISCID=f70d7812
DTITLE=Marc Shaiman - Patch Adams
DYEAR=1998
DGENRE=Soundtrack
TTITLE0=Rod Stewart - Faith Of The Heart
TTITLE1=Eric Clapton - Let It Rain
TTITLE2=Dave Mason - Only You Know And I Know
TTITLE3=Crosby, Stills, Nash, and Young - Carry On
TTITLE4=Derek And The Dominoes - Bell Bottom Blues
TTITLE5=The Rascals - Good Lovin'
TTITLE6=The Band - The Weight
TTITLE7=The Rascals - People Got To Be Free
TTITLE8=Sly and The Family Stone - Stand
TTITLE9=Marc Shaiman - Main Title
TTITLE10=Marc Shaiman - Look Beyond The Fingers
TTITLE11=Marc Shaiman - Children's Ward
TTITLE12=Marc Shaiman - Ranch Reveal
TTITLE13=Marc Shaiman - Hello
TTITLE14=Marc Shaiman - Speech/Children's Reprise
TTITLE15=Marc Shaiman - Front Porch
TTITLE16=Marc Shaiman - Butterfly/Noodle Pool
TTITLE17=Marc Shaiman - The Ruling/Graduation
EXTD=YEAR: 1998
EXTT0=
EXTT1=
EXTT2=
EXTT3=
EXTT4=
EXTT5=
EXTT6=
EXTT7=
EXTT8=
EXTT9=
EXTT10=
EXTT11=
EXTT12=
EXTT13=
EXTT14=
EXTT15=
EXTT16=
EXTT17=
PLAYORDER=
